<svg width="840" height="842" viewBox="0 0 840 842" fill="none" xmlns="http://www.w3.org/2000/svg">
<path d="M507.911 819.083V822.688C507.911 834.017 498.111 839.682 478.511 839.682L462.005 840.711H453.753L449.626 841.226H427.447L382.573 840.711L377.931 841.226H355.752C324.117 841.226 308.299 836.42 308.299 826.808V823.718C308.299 784.581 337.871 697.553 397.016 562.634C409.051 535.513 416.1 521.953 418.163 521.953C420.57 521.953 427.963 535.342 440.342 562.119C452.721 588.554 463.897 624.429 473.869 669.745C484.184 714.718 490.202 740.638 491.921 747.504C493.984 754.37 497.079 767.587 501.206 787.156C505.676 806.381 507.911 817.023 507.911 819.083Z" fill="white"/>
<path d="M327.862 22.4307L327.862 18.8307C327.862 7.51652 337.772 1.85942 357.591 1.85942L374.281 0.830855L382.626 0.830856L386.799 0.316544L409.226 0.316546L454.602 0.830864L459.296 0.316551L481.723 0.316554C513.712 0.316557 529.706 5.11655 529.706 14.7165L529.706 17.8022C529.706 56.8877 499.803 143.801 439.998 278.544C427.828 305.629 420.7 319.172 418.614 319.172C416.18 319.172 408.704 305.801 396.187 279.058C383.669 252.658 372.369 216.83 362.285 171.573C351.854 126.659 345.769 100.773 344.031 93.916C341.944 87.0589 338.815 73.859 334.643 54.3162C330.122 35.1163 327.862 24.4878 327.862 22.4307Z" fill="#F4BF4A"/>
<path d="M22.3464 512.234L18.7464 512.234C7.43218 512.234 1.77508 502.181 1.77508 482.074L0.746547 465.142L0.746548 456.676L0.232235 452.443L0.232236 429.691L0.74655 383.658L0.232237 378.896L0.232238 356.143C0.232238 323.691 5.03223 307.464 14.6322 307.464L17.7179 307.464C56.8034 307.464 143.717 337.801 278.459 398.473C305.545 410.819 319.088 418.05 319.088 420.167C319.088 422.636 305.716 430.22 278.974 442.919C252.574 455.618 216.745 467.082 171.488 477.312C126.574 487.894 100.689 494.067 93.8317 495.831C86.9746 497.948 73.7747 501.122 54.232 505.355C35.032 509.941 24.4035 512.234 22.3464 512.234Z" fill="#69C480"/>
<path d="M818.093 325.025L821.627 325.025C832.734 325.025 838.287 335.078 838.287 355.185L839.296 372.116L839.296 380.582L839.801 384.815L839.801 407.568L839.296 453.601L839.801 458.363L839.801 481.115C839.801 513.568 835.089 529.794 825.666 529.794L822.637 529.794C784.268 529.794 698.949 499.458 566.68 438.786C540.091 426.439 526.797 419.208 526.797 417.092C526.797 414.622 539.923 407.038 566.175 394.339C592.09 381.641 627.261 370.176 671.688 359.947C715.777 349.364 741.188 343.191 747.919 341.428C754.651 339.311 767.608 336.136 786.793 331.903C805.64 327.318 816.074 325.025 818.093 325.025Z" fill="#A578E1"/>
</svg>
